<?xml version="1.0" encoding="UTF-8" standalone="no"?>
<svg width="9px" height="12px" viewBox="0 0 9 12" version="1.1" xmlns="http://www.w3.org/2000/svg" xmlns:xlink="http://www.w3.org/1999/xlink" xmlns:sketch="http://www.bohemiancoding.com/sketch/ns">
    <!-- Generator: Sketch 3.0.4 (8054) - http://www.bohemiancoding.com/sketch -->
    <title>weight 2</title>
    <desc>Created with Sketch.</desc>
    <defs></defs>
    <g id="Page-1" stroke="none" stroke-width="1" fill="none" fill-rule="evenodd" sketch:type="MSPage">
        <g id="pizza33-homepage" sketch:type="MSArtboardGroup" transform="translate(-1045.000000, -126.000000)" stroke="#000000">
            <g id="order-over-+-select" sketch:type="MSLayerGroup" transform="translate(950.000000, -5.000000)">
                <g id="pizza-out" transform="translate(0.000000, 88.000000)" sketch:type="MSShapeGroup">
                    <g id="pizza">
                        <g id="pizza-info">
                            <path d="M98,45.9654442 L98,46 L96.9973917,46 C95.8942627,46 95,46.8958578 95,47.9973917 L95,53.0026083 C95,54.1057373 95.8958578,55 96.9973917,55 L102.002608,55 C103.105737,55 104,54.1041422 104,53.0026083 L104,47.9973917 C104,46.8942627 103.104142,46 102.002608,46 L101,46 L101,46 L101,45.9654442 C101.748083,45.9545202 102.163921,45.5360613 102.163921,45.5360613 C102.625675,45.2272797 103,44.5382107 103,43.9768979 L103,44.0000649 C103,43.4477443 102.562119,43 101.997071,43 L97.0029293,43 C96.4490268,43 96,43.4387521 96,44.0000649 L96,43.9768979 C96,44.5292185 96.3632889,45.2211969 96.8396809,45.5062525 C96.8396809,45.5062525 97.2124165,45.8542283 98,45.9654442 Z" id="weight-2"></path>
                        </g>
                    </g>
                </g>
            </g>
        </g>
    </g>
</svg>